<?xml version="1.0" encoding="UTF-8"?>
<svg width="800" height="240" viewBox="0 0 800 240" fill="none" xmlns="http://www.w3.org/2000/svg">
  <path d="M30 140L110 60L190 140" stroke="url(#roof-grad)" stroke-width="20" stroke-linecap="round" stroke-linejoin="round" fill="none"/>
  <path d="M20 170C40 150 60 165 80 155C100 145 120 160 140 150C160 140 180 155 200 145" stroke="#F57C00" stroke-width="15" stroke-linecap="round" fill="none"/>
  <path d="M40 200C60 180 75 195 95 185C115 175 135 190 155 180C175 170 190 185 210 175" stroke="#F57C00" stroke-width="12" stroke-linecap="round" fill="none" opacity="0.5"/>
  <circle cx="110" cy="100" r="18" fill="#F57C00"/>
  <circle cx="108" cy="95" r="6" fill="white" opacity="0.6"/>
  <path d="M260 70V170M260 120H310M310 70V170" stroke="#111827" stroke-width="18" stroke-linecap="round"/>
  <path d="M340 90C340 80 350 70 365 70C380 70 390 80 390 90C390 100 380 110 340 140H390" stroke="#111827" stroke-width="15" stroke-linecap="round" stroke-linejoin="round" fill="none"/>
  <ellipse cx="435" cy="120" rx="30" ry="50" stroke="#111827" stroke-width="15" fill="none"/>
  <circle cx="500" cy="120" r="10" fill="#F57C00"/>
  <path d="M530 70H590M560 70V170" stroke="#111827" stroke-width="18" stroke-linecap="round"/>
  <path d="M610 170L645 70L680 170M622 140H668" stroke="#111827" stroke-width="15" stroke-linecap="round" stroke-linejoin="round" fill="none"/>
  <path d="M700 70V170M700 120L750 70M700 120L750 170" stroke="#111827" stroke-width="18" stroke-linecap="round" stroke-linejoin="round" fill="none"/>
  <defs>
    <linearGradient id="roof-grad" x1="30" y1="100" x2="190" y2="100">
      <stop offset="0%" stop-color="#1565C0"/>
      <stop offset="100%" stop-color="#0D47A1"/>
    </linearGradient>
  </defs>
</svg>
